<svg width="1165" height="847" viewBox="0 0 1165 847" fill="none" xmlns="http://www.w3.org/2000/svg">
<rect x="32.8038" y="198.199" width="569" height="622" transform="rotate(-13.248 32.8038 198.199)" fill="#FFD293" stroke="#342F2F" stroke-width="3"/>
<path d="M594.391 149.613C593.361 149.613 592.552 148.804 592.552 147.773C592.552 110.424 566.133 80.0664 533.68 80.0664C532.649 80.0664 531.84 79.2569 531.84 78.2265C531.84 77.1962 532.649 76.3867 533.68 76.3867C566.133 76.3867 592.552 46.0289 592.552 8.67971C592.552 7.64938 593.361 6.83984 594.391 6.83984C595.422 6.83984 596.231 7.64938 596.231 8.67971C596.231 46.0289 622.65 76.3867 655.103 76.3867C656.134 76.3867 656.943 77.1962 656.943 78.2265C656.943 79.2569 656.134 80.0664 655.103 80.0664C622.65 80.0664 596.231 110.424 596.231 147.773C596.231 148.804 595.422 149.613 594.391 149.613Z" fill="#342F2F"/>
<path d="M594.391 8.67973C594.391 47.0225 621.62 78.2266 655.103 78.2266C621.62 78.2266 594.391 109.431 594.391 147.773C594.391 109.431 567.163 78.2266 533.68 78.2266C567.163 78.2266 594.391 47.0225 594.391 8.67973ZM594.391 5C592.368 5 590.712 6.65588 590.712 8.67973C590.712 44.9986 565.139 74.5468 533.68 74.5468C531.656 74.5468 530 76.2027 530 78.2266C530 80.2504 531.656 81.9063 533.68 81.9063C565.139 81.9063 590.712 111.454 590.712 147.773C590.712 149.797 592.368 151.453 594.391 151.453C596.415 151.453 598.071 149.797 598.071 147.773C598.071 111.454 623.644 81.9063 655.103 81.9063C657.127 81.9063 658.783 80.2504 658.783 78.2266C658.783 76.2027 657.127 74.5468 655.103 74.5468C623.644 74.5468 598.071 44.9986 598.071 8.67973C598.071 6.65588 596.415 5 594.391 5Z" fill="#342F2F"/>
<path d="M585.391 144.613C584.361 144.613 583.552 143.804 583.552 142.773C583.552 105.424 557.133 75.0664 524.68 75.0664C523.649 75.0664 522.84 74.2569 522.84 73.2265C522.84 72.1962 523.649 71.3867 524.68 71.3867C557.133 71.3867 583.552 41.0289 583.552 3.67971C583.552 2.64938 584.361 1.83984 585.391 1.83984C586.422 1.83984 587.231 2.64938 587.231 3.67971C587.231 41.0289 613.65 71.3867 646.103 71.3867C647.134 71.3867 647.943 72.1962 647.943 73.2265C647.943 74.2569 647.134 75.0664 646.103 75.0664C613.65 75.0664 587.231 105.424 587.231 142.773C587.231 143.804 586.422 144.613 585.391 144.613Z" fill="#FFD293"/>
<path d="M585.391 3.67973C585.391 42.0225 612.62 73.2266 646.103 73.2266C612.62 73.2266 585.391 104.431 585.391 142.773C585.391 104.431 558.163 73.2266 524.68 73.2266C558.163 73.2266 585.391 42.0225 585.391 3.67973ZM585.391 0C583.368 0 581.712 1.65588 581.712 3.67973C581.712 39.9986 556.139 69.5468 524.68 69.5468C522.656 69.5468 521 71.2027 521 73.2266C521 75.2504 522.656 76.9063 524.68 76.9063C556.139 76.9063 581.712 106.454 581.712 142.773C581.712 144.797 583.368 146.453 585.391 146.453C587.415 146.453 589.071 144.797 589.071 142.773C589.071 106.454 614.644 76.9063 646.103 76.9063C648.127 76.9063 649.783 75.2504 649.783 73.2266C649.783 71.2027 648.127 69.5468 646.103 69.5468C614.644 69.5468 589.071 39.9986 589.071 3.67973C589.071 1.65588 587.415 0 585.391 0Z" fill="#342F2F"/>
<rect x="18.0846" y="319.844" width="531.591" height="581.125" transform="rotate(-34.3253 18.0846 319.844)" fill="#342F2F" stroke="#342F2F" stroke-width="3"/>
<rect x="2.08461" y="319.844" width="531.591" height="581.125" transform="rotate(-34.3253 2.08461 319.844)" fill="#FFD293" stroke="#342F2F" stroke-width="3"/>
<rect x="665.699" y="92.8584" width="517.442" height="581.125" transform="rotate(16.1704 665.699 92.8584)" fill="#342F2F" stroke="black" stroke-width="3"/>
<rect x="656.699" y="75.8584" width="517.442" height="581.125" transform="rotate(16.1704 656.699 75.8584)" fill="#FFD293" stroke="black" stroke-width="3"/>
<path d="M594.395 130.297C622.605 673.514 635.625 385.63 594.395 843.496C480.508 717.128 281.919 843.496 90.2375 843.496V130.297C351.358 130.297 441.05 17.4578 594.395 130.297Z" fill="#342F2F" stroke="#342F2F" stroke-width="2"/>
<path d="M595.842 129.814C595.842 222.4 599.459 660.735 595.842 843.013C709.73 716.645 908.319 843.013 1100 843.013V129.814C838.88 129.814 749.187 16.9755 595.842 129.814Z" fill="#342F2F" stroke="#342F2F" stroke-width="2"/>
<path d="M594.403 125.261C622.304 662.527 635.181 377.798 594.403 830.647C481.764 705.663 285.35 830.647 95.7688 830.647V125.261C354.029 125.261 442.738 13.6587 594.403 125.261Z" fill="#342F2F" stroke="#342F2F" stroke-width="2"/>
<path d="M595.834 124.784C595.834 216.356 599.411 649.889 595.834 830.17C708.474 705.186 904.887 830.17 1094.47 830.17V124.784C836.209 124.784 747.499 13.1818 595.834 124.784Z" fill="#342F2F" stroke="#342F2F" stroke-width="2"/>
<path d="M594.369 122.695C621.804 650.985 634.466 371.013 594.369 816.295C483.611 693.4 290.48 816.295 104.066 816.295V122.695C358.011 122.695 445.238 12.9575 594.369 122.695Z" fill="#342F2F" stroke="#342F2F" stroke-width="2"/>
<path d="M595.776 122.226C595.776 212.268 599.293 638.557 595.776 815.826C706.534 692.931 899.666 815.826 1086.08 815.826V122.226C832.135 122.226 744.907 12.4885 595.776 122.226Z" fill="#342F2F" stroke="#342F2F" stroke-width="2"/>
<path d="M594.275 115.653C621.24 634.901 633.686 359.72 594.275 797.383C485.413 676.591 295.586 797.383 112.363 797.383V115.653C361.961 115.653 447.696 7.79264 594.275 115.653Z" fill="#342F2F" stroke="#342F2F" stroke-width="3"/>
<path d="M595.658 115.192C595.658 203.692 599.115 622.687 595.658 796.922C704.52 676.13 894.347 796.922 1077.57 796.922V115.192C827.972 115.192 742.237 7.33171 595.658 115.192Z" fill="#342F2F" stroke="#342F2F" stroke-width="3"/>
<mask id="path-18-inside-1_46_21" fill="white">
<path fill-rule="evenodd" clip-rule="evenodd" d="M532.823 821.961H657C640.527 795.328 618.767 779.133 594.911 779.133C571.056 779.133 549.296 795.328 532.823 821.961Z"/>
</mask>
<path fill-rule="evenodd" clip-rule="evenodd" d="M532.823 821.961H657C640.527 795.328 618.767 779.133 594.911 779.133C571.056 779.133 549.296 795.328 532.823 821.961Z" fill="#342F2F"/>
<path d="M532.823 821.961L531.122 820.908L529.234 823.961H532.823V821.961ZM657 821.961V823.961H660.589L658.701 820.908L657 821.961ZM532.823 823.961H657V819.961H532.823V823.961ZM594.911 781.133C617.785 781.133 639.007 796.672 655.299 823.013L658.701 820.908C642.048 793.985 619.75 777.133 594.911 777.133V781.133ZM534.524 823.013C550.816 796.672 572.038 781.133 594.911 781.133V777.133C570.073 777.133 547.775 793.985 531.122 820.908L534.524 823.013Z" fill="#342F2F" mask="url(#path-18-inside-1_46_21)"/>
<path d="M529 812C529 810.343 530.343 809 532 809H653.427C655.084 809 656.427 810.343 656.427 812V836.067C656.427 841.037 652.398 845.067 647.427 845.067H538C533.029 845.067 529 841.037 529 836.067V812Z" fill="#342F2F" stroke="#342F2F" stroke-width="2"/>
<path d="M583.165 114.094C611.375 657.311 624.395 369.428 583.165 827.293C469.278 700.925 270.689 827.293 79.0076 827.293V114.094C340.128 114.094 429.82 1.25515 583.165 114.094Z" fill="#FDE6D2" stroke="#342F2F" stroke-width="2"/>
<path d="M584.612 113.612C584.612 206.197 588.229 644.533 584.612 826.811C698.5 700.443 897.089 826.811 1088.77 826.811V113.612C827.65 113.612 737.957 0.772968 584.612 113.612Z" fill="#FDE6D2" stroke="#342F2F" stroke-width="2"/>
<path d="M583.173 109.059C611.074 646.325 623.951 361.595 583.173 814.444C470.534 689.461 274.12 814.444 84.5388 814.444V109.059C342.799 109.059 431.508 -2.54379 583.173 109.059Z" fill="#FDE6D2" stroke="#342F2F" stroke-width="2"/>
<path d="M584.604 108.582C584.604 200.153 588.181 633.686 584.604 813.967C697.244 688.984 893.657 813.967 1083.24 813.967V108.582C824.979 108.582 736.269 -3.02072 584.604 108.582Z" fill="#FDE6D2" stroke="#342F2F" stroke-width="2"/>
<path d="M583.139 106.493C610.574 634.782 623.236 354.81 583.139 800.093C472.382 677.197 279.25 800.093 92.8359 800.093V106.493C346.781 106.493 434.008 -3.24505 583.139 106.493Z" fill="#FDE6D2" stroke="#342F2F" stroke-width="2"/>
<path d="M584.546 106.024C584.546 196.065 588.063 622.355 584.546 799.624C695.304 676.728 888.436 799.624 1074.85 799.624V106.024C820.905 106.024 733.677 -3.71405 584.546 106.024Z" fill="#FDE6D2" stroke="#342F2F" stroke-width="2"/>
<path d="M583.045 99.4501C610.01 618.699 622.456 343.518 583.045 781.18C474.183 660.388 284.356 781.18 101.133 781.18V99.4501C350.732 99.4501 436.466 -8.40987 583.045 99.4501Z" fill="#FDE6D2" stroke="#342F2F" stroke-width="3"/>
<path d="M584.428 98.9891C584.428 187.49 587.885 606.484 584.428 780.719C693.29 659.927 883.117 780.719 1066.34 780.719V98.9891C816.742 98.9891 731.007 -8.87081 584.428 98.9891Z" fill="#FDE6D2" stroke="#342F2F" stroke-width="3"/>
<mask id="path-29-inside-2_46_21" fill="white">
<path fill-rule="evenodd" clip-rule="evenodd" d="M520.023 803.493H644.2C627.727 776.86 605.967 760.665 582.111 760.665C558.255 760.665 536.496 776.86 520.023 803.493Z"/>
</mask>
<path fill-rule="evenodd" clip-rule="evenodd" d="M520.023 803.493H644.2C627.727 776.86 605.967 760.665 582.111 760.665C558.255 760.665 536.496 776.86 520.023 803.493Z" fill="#F8A685"/>
<path d="M520.023 803.493L517.471 801.914L514.64 806.493H520.023V803.493ZM644.2 803.493V806.493H649.583L646.751 801.914L644.2 803.493ZM520.023 806.493H644.2V800.493H520.023V806.493ZM582.111 763.665C604.493 763.665 625.446 778.876 641.649 805.071L646.751 801.914C630.008 774.845 607.441 757.665 582.111 757.665V763.665ZM522.574 805.071C538.776 778.876 559.729 763.665 582.111 763.665V757.665C556.782 757.665 534.215 774.845 517.471 801.914L522.574 805.071Z" fill="#342F2F" mask="url(#path-29-inside-2_46_21)"/>
<path d="M520.536 798.877C520.536 797.497 521.655 796.377 523.036 796.377H644.463C645.844 796.377 646.963 797.497 646.963 798.877V822.944C646.963 827.639 643.157 831.444 638.463 831.444H529.036C524.341 831.444 520.536 827.639 520.536 822.944V798.877Z" fill="#FFD293" stroke="#342F2F" stroke-width="3"/>
</svg>
