<?xml version="1.0" encoding="UTF-8"?>
<svg id="Layer_2" data-name="Layer 2" xmlns="http://www.w3.org/2000/svg" xmlns:xlink="http://www.w3.org/1999/xlink" viewBox="0 0 245.28 243.3">
  <defs>
    <style>
      .cls-1 {
        stroke-linecap: round;
        stroke-linejoin: round;
        stroke-width: 15px;
      }

      .cls-1, .cls-2 {
        fill: none;
      }

      .cls-1, .cls-2, .cls-3, .cls-4 {
        stroke: #231f20;
      }

      .cls-2, .cls-3, .cls-4 {
        stroke-miterlimit: 10;
        stroke-width: 10px;
      }

      .cls-3, .cls-5 {
        fill: #b7b1e8;
      }

      .cls-4 {
        fill: #5646ac;
      }

      .cls-6 {
        clip-path: url(#clippath);
      }

      .cls-7 {
        fill: #7562c0;
      }

      .cls-8 {
        fill: #917ed4;
      }

      .cls-9 {
        fill: #231f20;
      }
    </style>
    <clipPath id="clippath">
      <rect class="cls-3" x="5" y="5" width="217.83" height="217.83" rx="44.06" ry="44.06"/>
    </clipPath>
  </defs>
  <g id="Icon">
    <rect class="cls-4" x="17.87" y="15.89" width="222.41" height="222.41" rx="44.99" ry="44.99"/>
    <g>
      <rect class="cls-5" x="5" y="5" width="217.83" height="217.83" rx="44.06" ry="44.06"/>
      <g class="cls-6">
        <path class="cls-8" d="M-8.22,267.3c40.81-1.85,81.21-8.46,121.62-14.05,35.1-4.86,69.27-17.4,98.15-38.2,29.87-21.51,54.94-49.6,70.99-82.91,17.48-36.29,25.11-76.16,22.95-116.4-2.3-42.74-11.83-89.46-37.73-124.55-4.64-6.28-9.52-11.18-17.33-13.33-6.94-1.91-16.19-1.05-22.35,2.92-12.05,7.77-20.04,26.62-10.4,39.68,4.73,6.41,8.9,13.19,12.45,20.32,.76,1.53,1.5,3.06,2.21,4.62,.47,1.03,.94,2.07,1.39,3.12l-1.6-3.78c1.76,3.5,2.91,7.53,4.14,11.25,5.01,15.14,8.19,30.84,10.32,46.63l-1.04-7.71c2.74,21.4,3.13,42.99,.33,64.4l1.04-7.71c-1.43,10.21-3.51,20.3-6.48,30.17-1.25,4.16-2.64,8.27-4.17,12.33-.76,2.02-1.69,4.01-2.4,6.05,3.07-8.79,.01-.25-1.05,1.99-3.85,8.08-8.26,15.89-13.19,23.36-1.34,2.04-2.72,4.05-4.14,6.04s-6.07,7.17-.33,.65c-3.04,3.46-5.8,7.16-8.89,10.59-6.02,6.67-12.51,12.91-19.41,18.65-1.06,.88-2.14,1.73-3.2,2.6-2.83,2.33,4.91-3.66,1.95-1.5-1.78,1.3-3.54,2.62-5.34,3.88-3.83,2.68-7.76,5.23-11.77,7.63-3.78,2.26-7.64,4.39-11.56,6.38-1.96,1-3.94,1.96-5.94,2.89-1,.46-2.01,.9-3,1.37-5.51,2.59,6.52-2.55,.85-.34-8.73,3.41-17.56,6.4-26.68,8.64-22.49,5.52-46.11,7.54-69.04,10.63l7.71-1.04c-22.93,3.06-45.93,5.69-69.05,6.74-15.13,.69-29.72,12.85-29,29,.68,15.12,12.77,29.74,29,29h0Z"/>
        <path class="cls-7" d="M29.93,281.94c36.47-4.69,73.16-7.67,109.43-13.9,16.18-2.78,32.49-6.07,47.91-11.82,18.92-7.05,35.62-16.61,50.62-30.22,13.04-11.83,23.53-26.16,34.3-39.99,4.94-6.34,8.49-12.1,8.49-20.51,0-7.11-3.16-15.61-8.49-20.51s-12.78-8.84-20.51-8.49c-7.13,.32-15.91,2.59-20.51,8.49-8.57,11-16.95,22.24-26.55,32.38-4.42,4.67-9.19,8.81-14.08,12.96,7.99-6.79-.21-.03-2.61,1.5-2.86,1.84-5.81,3.54-8.83,5.11-1.47,.77-2.96,1.5-4.47,2.2-6.92,3.23,4.93-1.8,.1,.02-3.37,1.27-6.73,2.52-10.16,3.61-6.54,2.07-13.2,3.77-19.9,5.27-15.15,3.39-30.52,5.77-45.9,7.86l7.71-1.04c-25.47,3.42-51.07,5.77-76.55,9.05-7.99,1.03-14.57,2.56-20.51,8.49-5.03,5.03-8.82,13.28-8.49,20.51s2.8,15.28,8.49,20.51c5.25,4.82,13.09,9.45,20.51,8.49h0Z"/>
      </g>
      <rect class="cls-2" x="5" y="5" width="217.83" height="217.83" rx="44.06" ry="44.06"/>
    </g>
    <g>
      <polyline class="cls-1" points="140.07 126.49 186.93 96.2 142.07 68.51"/>
      <polyline class="cls-1" points="89.07 126.49 42.21 96.2 87.07 68.51"/>
    </g>
    <g>
      <path class="cls-9" d="M114.64,153.08s8.11,6.89,25.47,11.34c27.63,7.07,30.4-13.27,30.4-13.27,0,0-3.14,6.54-20.88,.18-31.69-11.36-35,1.76-35,1.76Z"/>
      <path class="cls-9" d="M114.64,153.08s-8.11,6.89-25.47,11.34c-27.63,7.07-30.4-13.27-30.4-13.27,0,0,3.14,6.54,20.88,.18,31.69-11.36,35,1.76,35,1.76Z"/>
    </g>
  </g>
</svg>